<?xml version="1.0" encoding="UTF-8" standalone="no"?>
<!DOCTYPE svg PUBLIC "-//W3C//DTD SVG 1.1//EN"
 "http://www.w3.org/Graphics/SVG/1.1/DTD/svg11.dtd">
<!-- Generated by graphviz version 13.1.2 (20250808.2320)
 -->
<!-- Title: YoussefFamily Pages: 1 -->
<svg width="316pt" height="188pt"
 viewBox="0.00 0.00 316.00 188.00" xmlns="http://www.w3.org/2000/svg" xmlns:xlink="http://www.w3.org/1999/xlink">
<g id="graph0" class="graph" transform="scale(1 1) rotate(0) translate(4 184)">
<title>YoussefFamily</title>
<polygon fill="white" stroke="none" points="-4,4 -4,-184 311.88,-184 311.88,4 -4,4"/>
<!-- Bahiga (Nadia) -->
<g id="node1" class="node">
<title>Bahiga (Nadia)</title>
<polygon fill="lightblue" stroke="lightblue" points="231.5,-180 125.5,-180 125.5,-144 231.5,-144 231.5,-180"/>
<text xml:space="preserve" text-anchor="middle" x="178.5" y="-156.2" font-family="Helvetica,sans-Serif" font-size="14.00">Bahiga (Nadia)</text>
</g>
<!-- Neveen Youssef&#45;Mosca -->
<g id="node2" class="node">
<title>Neveen Youssef&#45;Mosca</title>
<polygon fill="lightblue" stroke="lightblue" points="183.12,-108 23.88,-108 23.88,-72 183.12,-72 183.12,-108"/>
<text xml:space="preserve" text-anchor="middle" x="103.5" y="-84.2" font-family="Helvetica,sans-Serif" font-size="14.00">Neveen Youssef&#45;Mosca</text>
</g>
<!-- Bahiga (Nadia)&#45;&gt;Neveen Youssef&#45;Mosca -->
<g id="edge1" class="edge">
<title>Bahiga (Nadia)&#45;&gt;Neveen Youssef&#45;Mosca</title>
<path fill="none" stroke="black" d="M159.96,-143.7C151.04,-135.37 140.17,-125.22 130.36,-116.07"/>
<polygon fill="black" stroke="black" points="132.89,-113.64 123.19,-109.38 128.11,-118.76 132.89,-113.64"/>
</g>
<!-- Arlette Youssef -->
<g id="node3" class="node">
<title>Arlette Youssef</title>
<polygon fill="lightblue" stroke="lightblue" points="307.88,-108 201.12,-108 201.12,-72 307.88,-72 307.88,-108"/>
<text xml:space="preserve" text-anchor="middle" x="254.5" y="-84.2" font-family="Helvetica,sans-Serif" font-size="14.00">Arlette Youssef</text>
</g>
<!-- Bahiga (Nadia)&#45;&gt;Arlette Youssef -->
<g id="edge2" class="edge">
<title>Bahiga (Nadia)&#45;&gt;Arlette Youssef</title>
<path fill="none" stroke="black" d="M197.29,-143.7C206.33,-135.37 217.34,-125.22 227.28,-116.07"/>
<polygon fill="black" stroke="black" points="229.57,-118.72 234.55,-109.37 224.83,-113.57 229.57,-118.72"/>
</g>
<!-- Alexia Mosca -->
<g id="node4" class="node">
<title>Alexia Mosca</title>
<polygon fill="lightblue" stroke="lightblue" points="97,-36 0,-36 0,0 97,0 97,-36"/>
<text xml:space="preserve" text-anchor="middle" x="48.5" y="-12.2" font-family="Helvetica,sans-Serif" font-size="14.00">Alexia Mosca</text>
</g>
<!-- Neveen Youssef&#45;Mosca&#45;&gt;Alexia Mosca -->
<g id="edge3" class="edge">
<title>Neveen Youssef&#45;Mosca&#45;&gt;Alexia Mosca</title>
<path fill="none" stroke="black" d="M89.9,-71.7C83.58,-63.64 75.92,-53.89 68.91,-44.98"/>
<polygon fill="black" stroke="black" points="71.8,-43 62.87,-37.29 66.3,-47.32 71.8,-43"/>
</g>
<!-- Luke Mosca -->
<g id="node5" class="node">
<title>Luke Mosca</title>
<polygon fill="lightblue" stroke="lightblue" points="204.25,-36 114.75,-36 114.75,0 204.25,0 204.25,-36"/>
<text xml:space="preserve" text-anchor="middle" x="159.5" y="-12.2" font-family="Helvetica,sans-Serif" font-size="14.00">Luke Mosca</text>
</g>
<!-- Neveen Youssef&#45;Mosca&#45;&gt;Luke Mosca -->
<g id="edge4" class="edge">
<title>Neveen Youssef&#45;Mosca&#45;&gt;Luke Mosca</title>
<path fill="none" stroke="black" d="M117.34,-71.7C123.79,-63.64 131.58,-53.89 138.71,-44.98"/>
<polygon fill="black" stroke="black" points="141.36,-47.28 144.87,-37.29 135.89,-42.91 141.36,-47.28"/>
</g>
</g>
</svg>
